<?xml version="1.0" encoding="UTF-8"?>
<svg id="Livello_2" data-name="Livello 2" xmlns="http://www.w3.org/2000/svg" viewBox="0 0 1427.71 264.46">
  <defs>
    <style>
      .cls-1 {
        fill: #1d1d1b;
      }
    </style>
  </defs>
  <g id="Livello_1-2" data-name="Livello 1">
    <g>
      <path class="cls-1" d="M1381.77,50.61c13.46,0,21.54,8.97,23.33,22.07h-46.48c2.15-15.26,11.13-22.07,23.15-22.07M1427.71,83.09c0-29.43-17.41-50.07-45.77-50.07s-45.76,19.38-45.76,48.46,18.84,48.46,46.12,48.46c22.25,0,38.41-12.03,43.07-30.87h-21.72c-3.41,8.26-10.41,13.28-21.18,13.28-13.1,0-22.43-7.36-24.05-23.87h69.28v-5.38ZM1305.31,127.78h22.61V0h-22.61v127.78ZM1270.32,127.78h22.61V35.18h-22.61v92.61ZM1270.5,23.15h22.25V1.97h-22.25v21.18ZM1214.83,111.27c-14.72,0-23.87-10.23-23.87-29.79s9.15-29.79,23.87-29.79,23.87,9.51,23.87,29.07-9.15,30.51-23.87,30.51M1220.21,33.02c-12.92,0-22.43,5.2-28.71,14.18V0h-22.61v127.78h21.72v-13.28c6.28,9.69,16.15,15.43,29.61,15.43,25.48,0,41.46-19.02,41.46-48.46s-15.97-48.46-41.46-48.46M1111.11,113.78c-10.41,0-15.61-4.85-15.61-12.56s4.13-11.84,16.69-13.28l12.2-1.44c4.85-.54,8.26-1.62,10.59-3.77v8.43c0,16.15-11.85,22.61-23.87,22.61M1160.65,127.78c-2.51-3.59-3.77-10.95-3.77-17.59v-49.35c0-16.69-10.95-27.82-38.59-27.82s-40.38,12.02-41.64,31.59h22.25c.9-11.31,6.28-14.72,19.2-14.72s16.87,4.31,16.87,11.49-4.49,9.51-13.1,10.59l-14,1.26c-26.2,2.51-35.54,13.46-35.54,28.89,0,17.95,13.64,27.82,33.38,27.82,13.64,0,23.69-4.85,29.79-13.46.36,4.49,1.08,8.79,2.51,11.31h22.61ZM1066.75,33.74c-14.36,0-23.15,7.54-27.64,17.95v-16.51h-21.9v92.61h22.61v-47.02c0-17.59,10.05-25.84,26.74-25.84h5.74v-20.82c-1.97-.36-3.59-.36-5.56-.36M982.17,127.78h22.61V35.18h-22.61v92.61ZM982.35,23.15h22.25V1.97h-22.25v21.18ZM932.56,0l-21.36,60.84c-3.95,11.49-8.08,24.77-11.31,35.89-3.23-10.59-7.18-23.15-10.95-34.64L866.88,0h-35.18v127.78h23.33v-38.94c0-19.2-.18-40.02-.72-62.99,2.87,9.51,5.74,18.13,9.51,29.07l26.02,72.86h19.92l25.84-72.86c3.95-11.13,6.82-19.74,9.69-29.43-.54,23.15-.72,43.97-.72,63.35v38.94h23.15V0h-35.18ZM735.87,113.78c-10.41,0-15.61-4.85-15.61-12.56s4.13-11.84,16.69-13.28l12.2-1.44c4.85-.54,8.26-1.62,10.59-3.77v8.43c0,16.15-11.85,22.61-23.87,22.61M785.4,127.78c-2.51-3.59-3.77-10.95-3.77-17.59v-49.35c0-16.69-10.95-27.82-38.59-27.82s-40.38,12.02-41.64,31.59h22.25c.9-11.31,6.28-14.72,19.2-14.72s16.87,4.31,16.87,11.49-4.49,9.51-13.1,10.59l-14,1.26c-26.2,2.51-35.53,13.46-35.53,28.89,0,17.95,13.64,27.82,33.38,27.82,13.64,0,23.69-4.85,29.79-13.46.36,4.49,1.08,8.79,2.51,11.31h22.61ZM651.27,129.94c23.69,0,40.92-14,43.43-36.61h-22.61c-1.79,12.2-10.59,17.77-20.82,17.77-13.1,0-22.61-9.33-22.61-29.61s9.15-29.61,22.61-29.61c10.05,0,18.31,5.2,20.46,16.69h22.61c-2.69-21.72-18.85-35.53-43.07-35.53-27.64,0-45.77,18.84-45.77,48.46s18.31,48.46,45.77,48.46M562.14,130.29c25.84,0,41.1-10.41,41.1-29.07,0-15.97-9.87-24.23-32.12-28.18l-11.67-1.79c-10.05-1.79-15.43-4.49-15.43-11.31s5.2-10.77,16.15-10.77c11.67,0,19.02,3.41,19.56,15.26h21.36c-.72-19.02-12.38-31.41-40.92-31.41-24.77,0-38.41,10.59-38.41,28,0,15.79,10.41,24.59,30.33,28l10.59,1.79c14,2.33,18.13,5.56,18.13,12.2,0,7-5.21,11.13-18.31,11.13s-19.38-4.13-20.64-15.79h-22.08c1.44,22.43,15.97,31.95,42.35,31.95M471.75,50.61c13.46,0,21.54,8.97,23.33,22.07h-46.48c2.15-15.26,11.13-22.07,23.15-22.07M517.69,83.09c0-29.43-17.41-50.07-45.76-50.07s-45.77,19.38-45.77,48.46,18.85,48.46,46.12,48.46c22.25,0,38.41-12.03,43.07-30.87h-21.71c-3.41,8.26-10.41,13.28-21.18,13.28-13.1,0-22.43-7.36-24.05-23.87h69.28v-5.38ZM380.13,129.94c23.69,0,40.92-14,43.43-36.61h-22.61c-1.8,12.2-10.59,17.77-20.82,17.77-13.1,0-22.61-9.33-22.61-29.61s9.15-29.61,22.61-29.61c10.05,0,18.3,5.2,20.46,16.69h22.61c-2.69-21.72-18.84-35.53-43.07-35.53-27.64,0-45.77,18.84-45.77,48.46s18.31,48.46,45.77,48.46M293.95,33.02c-13.1,0-22.97,6.64-28.89,15.43v-13.28h-21.9v92.61h22.61v-51.87c0-16.51,10.77-23.33,20.64-23.33,11.49,0,17.41,5.74,17.41,17.59v57.61h22.61v-61.38c0-22.07-13.1-33.38-32.48-33.38M185.39,113.78c-10.41,0-15.61-4.85-15.61-12.56s4.13-11.84,16.69-13.28l12.2-1.44c4.84-.54,8.25-1.62,10.59-3.77v8.43c0,16.15-11.85,22.61-23.87,22.61M234.92,127.78c-2.51-3.59-3.77-10.95-3.77-17.59v-49.35c0-16.69-10.95-27.82-38.59-27.82s-40.38,12.02-41.64,31.59h22.25c.9-11.31,6.28-14.72,19.2-14.72s16.87,4.31,16.87,11.49-4.49,9.51-13.1,10.59l-14,1.26c-26.2,2.51-35.53,13.46-35.53,28.89,0,17.95,13.64,27.82,33.38,27.82,13.64,0,23.69-4.85,29.79-13.46.36,4.49,1.08,8.79,2.51,11.31h22.61ZM141.02,33.74c-14.36,0-23.15,7.54-27.64,17.95v-16.51h-21.9v92.61h22.61v-47.02c0-17.59,10.05-25.84,26.74-25.84h5.74v-20.82c-1.97-.36-3.59-.36-5.56-.36M90.27,21.72V0H0v127.78h24.23v-55.1h60.12v-20.82H24.23v-30.15h66.04Z"/>
      <path class="cls-1" d="M1174.09,186.57v-17.23h-18.31v-26.92h-22.43v26.92h-14.36v17.23h14.36v52.4c0,17.05,9.33,23.69,28.89,23.69,3.59,0,7.72-.36,11.84-.72v-17.23h-7.72c-7.54,0-10.59-1.97-10.59-8.08v-50.07h18.31ZM1078.43,264.46c25.84,0,41.1-10.41,41.1-29.07,0-15.97-9.87-24.23-32.12-28.18l-11.67-1.79c-10.05-1.79-15.43-4.49-15.43-11.31s5.2-10.77,16.15-10.77c11.67,0,19.02,3.41,19.56,15.25h21.36c-.72-19.02-12.38-31.41-40.92-31.41-24.77,0-38.41,10.59-38.41,28,0,15.79,10.41,24.59,30.33,28l10.59,1.79c14,2.33,18.13,5.56,18.13,12.2,0,7-5.21,11.13-18.31,11.13s-19.38-4.13-20.64-15.79h-22.07c1.43,22.43,15.97,31.95,42.35,31.95M1006.21,261.94h22.61v-92.61h-22.61v92.61ZM1006.39,157.31h22.25v-21.18h-22.25v21.18ZM999.5,186.57v-17.23h-18.31v-26.92h-22.43v26.92h-14.36v17.23h14.36v52.4c0,17.05,9.33,23.69,28.9,23.69,3.59,0,7.72-.36,11.84-.72v-17.23h-7.72c-7.54,0-10.59-1.97-10.59-8.08v-50.07h18.31ZM936.85,167.9c-14.36,0-23.15,7.54-27.64,17.95v-16.51h-21.9v92.61h22.61v-47.02c0-17.59,10.05-25.84,26.74-25.84h5.74v-20.82c-1.97-.36-3.59-.36-5.56-.36M798.95,213.13l4.85-13.82c4.31-11.67,10.41-28.72,15.61-43.79,5.21,15.07,11.31,32.12,15.79,43.79l5.03,13.82h-41.28ZM857.63,261.94h25.66l-49.53-127.78h-28.36l-48.64,127.78h24.95l9.87-28.18h55.99l10.05,28.18ZM692.35,261.94h22.61v-127.78h-22.61v127.78ZM634.4,247.94c-10.41,0-15.61-4.84-15.61-12.56s4.13-11.85,16.69-13.28l12.2-1.44c4.85-.54,8.26-1.61,10.59-3.77v8.43c0,16.15-11.85,22.61-23.87,22.61M683.93,261.94c-2.51-3.59-3.77-10.95-3.77-17.59v-49.35c0-16.69-10.95-27.82-38.59-27.82s-40.38,12.02-41.64,31.59h22.26c.9-11.31,6.28-14.72,19.2-14.72s16.87,4.31,16.87,11.49-4.49,9.51-13.1,10.59l-14,1.26c-26.2,2.51-35.53,13.46-35.53,28.89,0,17.95,13.64,27.82,33.38,27.82,13.64,0,23.69-4.85,29.79-13.46.36,4.49,1.08,8.79,2.51,11.31h22.61ZM565.18,169.34v51.87c0,16.51-10.77,23.33-20.64,23.33-11.66,0-17.41-5.74-17.41-17.59v-57.61h-22.61v61.38c0,22.07,13.1,33.38,32.3,33.38,13.28,0,22.97-6.64,29.07-15.61v13.46h21.9v-92.61h-22.61ZM456.46,264.46c25.84,0,41.1-10.41,41.1-29.07,0-15.97-9.87-24.23-32.12-28.18l-11.67-1.79c-10.05-1.79-15.43-4.49-15.43-11.31s5.2-10.77,16.15-10.77c11.67,0,19.02,3.41,19.56,15.25h21.36c-.72-19.02-12.38-31.41-40.92-31.41-24.77,0-38.41,10.59-38.41,28,0,15.79,10.41,24.59,30.33,28l10.59,1.79c14,2.33,18.13,5.56,18.13,12.2,0,7-5.2,11.13-18.31,11.13s-19.38-4.13-20.64-15.79h-22.07c1.44,22.43,15.97,31.95,42.35,31.95M384.24,261.94h22.61v-92.61h-22.61v92.61ZM384.42,157.31h22.25v-21.18h-22.25v21.18ZM355.56,134.16l-22.61,66.04c-4.13,12.56-8.43,26.2-12.02,39.84-3.77-13.64-8.08-27.28-12.2-39.84l-23.15-66.04h-25.84l46.84,127.78h28.36l45.77-127.78h-25.13Z"/>
    </g>
  </g>
</svg>